<mxfile host="app.diagrams.net" modified="2022-09-10T18:17:19.812Z" agent="5.0 (Macintosh; Intel Mac OS X 10_15_7) AppleWebKit/537.36 (KHTML, like Gecko) Chrome/105.0.0.0 Safari/537.36" etag="PQUZQQGh_hWKq_D9WGvr" version="20.3.0" type="github">
  <diagram name="Page-1" id="efa7a0a1-bf9b-a30e-e6df-94a7791c09e9">
    <mxGraphModel dx="892" dy="683" grid="1" gridSize="10" guides="1" tooltips="1" connect="1" arrows="1" fold="1" page="1" pageScale="1" pageWidth="826" pageHeight="1169" background="none" math="0" shadow="0">
      <root>
        <mxCell id="0" />
        <mxCell id="1" parent="0" />
        <mxCell id="29" value="&lt;p style=&quot;margin: 0px; margin-top: 4px; text-align: center; text-decoration: underline;&quot;&gt;Bills&lt;/p&gt;&lt;hr&gt;&lt;p style=&quot;margin: 0px; margin-left: 8px;&quot;&gt;&lt;span style=&quot;background-color: initial;&quot;&gt;_id&lt;/span&gt;&lt;/p&gt;&lt;p style=&quot;margin: 0px; margin-left: 8px;&quot;&gt;&lt;span style=&quot;background-color: initial;&quot;&gt;code&lt;/span&gt;&lt;br&gt;&lt;/p&gt;&lt;p style=&quot;margin: 0px; margin-left: 8px;&quot;&gt;&lt;span style=&quot;background-color: initial;&quot;&gt;totalAmount&lt;/span&gt;&lt;/p&gt;&lt;p style=&quot;margin: 0px; margin-left: 8px;&quot;&gt;&lt;span style=&quot;background-color: initial;&quot;&gt;items: [item]&lt;/span&gt;&lt;/p&gt;&lt;p style=&quot;margin: 0px; margin-left: 8px;&quot;&gt;&lt;span style=&quot;background-color: initial;&quot;&gt;createdAt&lt;/span&gt;&lt;br&gt;&lt;/p&gt;&lt;p style=&quot;margin: 0px; margin-left: 8px;&quot;&gt;updatedAt&lt;/p&gt;&lt;p style=&quot;margin: 0px; margin-left: 8px;&quot;&gt;&lt;br&gt;&lt;/p&gt;" style="verticalAlign=top;align=left;overflow=fill;fontSize=12;fontFamily=Helvetica;html=1;strokeColor=#003366;shadow=1;fillColor=#D4E1F5;fontColor=#003366" parent="1" vertex="1">
          <mxGeometry x="50" y="50" width="160" height="200" as="geometry" />
        </mxCell>
        <mxCell id="36" value="" style="endArrow=open;endSize=12;startArrow=diamondThin;startSize=14;startFill=0;edgeStyle=orthogonalEdgeStyle;" parent="1" target="20" edge="1">
          <mxGeometry y="160" as="geometry">
            <mxPoint x="390" y="211.64000000000044" as="sourcePoint" />
            <mxPoint x="160" y="160" as="targetPoint" />
          </mxGeometry>
        </mxCell>
        <mxCell id="37" value="0..n" style="resizable=0;align=left;verticalAlign=top;labelBackgroundColor=#ffffff;fontSize=10;strokeColor=#003366;shadow=1;fillColor=#D4E1F5;fontColor=#003366" parent="36" connectable="0" vertex="1">
          <mxGeometry x="-1" relative="1" as="geometry">
            <mxPoint x="10" as="offset" />
          </mxGeometry>
        </mxCell>
        <mxCell id="38" value="1" style="resizable=0;align=right;verticalAlign=top;labelBackgroundColor=#ffffff;fontSize=10;strokeColor=#003366;shadow=1;fillColor=#D4E1F5;fontColor=#003366" parent="36" connectable="0" vertex="1">
          <mxGeometry x="1" relative="1" as="geometry">
            <mxPoint x="590" y="105" as="offset" />
          </mxGeometry>
        </mxCell>
        <mxCell id="45" value="" style="endArrow=open;endSize=12;startArrow=diamondThin;startSize=14;startFill=0;edgeStyle=orthogonalEdgeStyle;rounded=0" parent="1" source="23" edge="1">
          <mxGeometry x="519.3599999999999" y="180" as="geometry">
            <mxPoint x="519.3599999999999" y="180" as="sourcePoint" />
            <mxPoint x="960" y="430" as="targetPoint" />
          </mxGeometry>
        </mxCell>
        <mxCell id="46" value="0..n" style="resizable=0;align=left;verticalAlign=top;labelBackgroundColor=#ffffff;fontSize=10;strokeColor=#003366;shadow=1;fillColor=#D4E1F5;fontColor=#003366" parent="45" connectable="0" vertex="1">
          <mxGeometry x="-1" relative="1" as="geometry">
            <mxPoint x="8.919999999999618" as="offset" />
          </mxGeometry>
        </mxCell>
        <mxCell id="47" value="1" style="resizable=0;align=right;verticalAlign=top;labelBackgroundColor=#ffffff;fontSize=10;strokeColor=#003366;shadow=1;fillColor=#D4E1F5;fontColor=#003366" parent="45" connectable="0" vertex="1">
          <mxGeometry x="1" relative="1" as="geometry">
            <mxPoint x="-550" y="-159.99999999999997" as="offset" />
          </mxGeometry>
        </mxCell>
        <mxCell id="81" value="" style="endArrow=open;endSize=12;startArrow=diamondThin;startSize=14;startFill=0;edgeStyle=orthogonalEdgeStyle" parent="1" target="35" edge="1">
          <mxGeometry x="1119.36" y="540" as="geometry">
            <mxPoint x="1250" y="420" as="sourcePoint" />
            <mxPoint x="1279.36" y="540" as="targetPoint" />
          </mxGeometry>
        </mxCell>
        <mxCell id="82" value="0..n" style="resizable=0;align=left;verticalAlign=top;labelBackgroundColor=#ffffff;fontSize=10;strokeColor=#003366;shadow=1;fillColor=#D4E1F5;fontColor=#003366" parent="81" connectable="0" vertex="1">
          <mxGeometry x="-1" relative="1" as="geometry">
            <mxPoint x="10" y="-20" as="offset" />
          </mxGeometry>
        </mxCell>
        <mxCell id="83" value="1" style="resizable=0;align=right;verticalAlign=top;labelBackgroundColor=#ffffff;fontSize=10;strokeColor=#003366;shadow=1;fillColor=#D4E1F5;fontColor=#003366" parent="81" connectable="0" vertex="1">
          <mxGeometry x="1" relative="1" as="geometry">
            <mxPoint x="20" as="offset" />
          </mxGeometry>
        </mxCell>
        <mxCell id="84" value="" style="endArrow=open;endSize=12;startArrow=diamondThin;startSize=14;startFill=0;edgeStyle=orthogonalEdgeStyle" parent="1" source="27" edge="1">
          <mxGeometry x="1389.36" y="130" as="geometry">
            <mxPoint x="1389.36" y="130" as="sourcePoint" />
            <mxPoint x="1040" y="520" as="targetPoint" />
          </mxGeometry>
        </mxCell>
        <mxCell id="85" value="0..n" style="resizable=0;align=left;verticalAlign=top;labelBackgroundColor=#ffffff;fontSize=10;strokeColor=#003366;shadow=1;fillColor=#D4E1F5;fontColor=#003366" parent="84" connectable="0" vertex="1">
          <mxGeometry x="-1" relative="1" as="geometry">
            <mxPoint x="-30" as="offset" />
          </mxGeometry>
        </mxCell>
        <mxCell id="86" value="1" style="resizable=0;align=right;verticalAlign=top;labelBackgroundColor=#ffffff;fontSize=10;strokeColor=#003366;shadow=1;fillColor=#D4E1F5;fontColor=#003366" parent="84" connectable="0" vertex="1">
          <mxGeometry x="1" relative="1" as="geometry">
            <mxPoint x="20" y="2.7284841053187846e-13" as="offset" />
          </mxGeometry>
        </mxCell>
        <mxCell id="87" value="" style="endArrow=open;endSize=12;startArrow=diamondThin;startSize=14;startFill=0;edgeStyle=orthogonalEdgeStyle" parent="1" target="24" edge="1">
          <mxGeometry x="519.3599999999999" y="200" as="geometry">
            <mxPoint x="390" y="427.4999999999998" as="sourcePoint" />
            <mxPoint x="679.3599999999999" y="200" as="targetPoint" />
          </mxGeometry>
        </mxCell>
        <mxCell id="88" value="0..n" style="resizable=0;align=left;verticalAlign=top;labelBackgroundColor=#ffffff;fontSize=10;strokeColor=#003366;shadow=1;fillColor=#D4E1F5;fontColor=#003366" parent="87" connectable="0" vertex="1">
          <mxGeometry x="-1" relative="1" as="geometry">
            <mxPoint x="-40" as="offset" />
          </mxGeometry>
        </mxCell>
        <mxCell id="89" value="1" style="resizable=0;align=right;verticalAlign=top;labelBackgroundColor=#ffffff;fontSize=10;strokeColor=#003366;shadow=1;fillColor=#D4E1F5;fontColor=#003366" parent="87" connectable="0" vertex="1">
          <mxGeometry x="1" relative="1" as="geometry">
            <mxPoint x="19.99999999999981" y="-24.999999999999815" as="offset" />
          </mxGeometry>
        </mxCell>
        <mxCell id="90" value="" style="endArrow=open;endSize=12;startArrow=diamondThin;startSize=14;startFill=0;edgeStyle=orthogonalEdgeStyle" parent="1" source="25" edge="1">
          <mxGeometry x="620" y="340" as="geometry">
            <mxPoint x="620" y="340" as="sourcePoint" />
            <mxPoint x="120" y="284.9999999999998" as="targetPoint" />
          </mxGeometry>
        </mxCell>
        <mxCell id="91" value="0..n" style="resizable=0;align=left;verticalAlign=top;labelBackgroundColor=#ffffff;fontSize=10;strokeColor=#003366;shadow=1;fillColor=#D4E1F5;fontColor=#003366" parent="90" connectable="0" vertex="1">
          <mxGeometry x="-1" relative="1" as="geometry">
            <mxPoint x="10" as="offset" />
          </mxGeometry>
        </mxCell>
        <mxCell id="92" value="1" style="resizable=0;align=right;verticalAlign=top;labelBackgroundColor=#ffffff;fontSize=10;strokeColor=#003366;shadow=1;fillColor=#D4E1F5;fontColor=#003366" parent="90" connectable="0" vertex="1">
          <mxGeometry x="1" relative="1" as="geometry">
            <mxPoint x="20" y="-24.99999999999981" as="offset" />
          </mxGeometry>
        </mxCell>
        <mxCell id="102" value="Use" style="endArrow=open;endSize=12;dashed=1" parent="1" target="19" edge="1">
          <mxGeometry x="430" y="50" as="geometry">
            <mxPoint x="591.0800000000004" y="151.64000000000055" as="sourcePoint" />
            <mxPoint x="590" y="50" as="targetPoint" />
          </mxGeometry>
        </mxCell>
        <mxCell id="103" value="1" style="endArrow=open;endSize=12;startArrow=diamondThin;startSize=14;startFill=1;edgeStyle=orthogonalEdgeStyle;align=left;verticalAlign=bottom;" parent="1" source="21" edge="1">
          <mxGeometry x="-0.8181818181818175" y="4.999999999999702" relative="1" as="geometry">
            <mxPoint x="80" y="510" as="sourcePoint" />
            <mxPoint x="310" y="364.9999999999998" as="targetPoint" />
            <mxPoint as="offset" />
          </mxGeometry>
        </mxCell>
        <mxCell id="KV0pygeaIstkxQwhvMH2-114" value="&lt;p style=&quot;margin: 0px; margin-top: 4px; text-align: center; text-decoration: underline;&quot;&gt;Items&lt;/p&gt;&lt;hr&gt;&lt;p style=&quot;margin: 0px; margin-left: 8px;&quot;&gt;&lt;span style=&quot;background-color: initial;&quot;&gt;_id&lt;/span&gt;&lt;/p&gt;&lt;p style=&quot;margin: 0px; margin-left: 8px;&quot;&gt;&lt;span style=&quot;background-color: initial;&quot;&gt;code&lt;/span&gt;&lt;br&gt;&lt;/p&gt;&lt;p style=&quot;margin: 0px; margin-left: 8px;&quot;&gt;&lt;span style=&quot;background-color: initial;&quot;&gt;price&lt;/span&gt;&lt;/p&gt;&lt;p style=&quot;margin: 0px; margin-left: 8px;&quot;&gt;&lt;span style=&quot;background-color: initial;&quot;&gt;description&lt;/span&gt;&lt;/p&gt;&lt;p style=&quot;margin: 0px 0px 0px 8px;&quot;&gt;&lt;span style=&quot;background-color: initial;&quot;&gt;createdAt&lt;/span&gt;&lt;br&gt;&lt;/p&gt;&lt;p style=&quot;margin: 0px 0px 0px 8px;&quot;&gt;updatedAt&lt;/p&gt;&lt;p style=&quot;margin: 0px; margin-left: 8px;&quot;&gt;&lt;br&gt;&lt;/p&gt;" style="verticalAlign=top;align=left;overflow=fill;fontSize=12;fontFamily=Helvetica;html=1;strokeColor=#003366;shadow=1;fillColor=#D4E1F5;fontColor=#003366" vertex="1" parent="1">
          <mxGeometry x="290" y="50" width="160" height="200" as="geometry" />
        </mxCell>
        <mxCell id="KV0pygeaIstkxQwhvMH2-115" value="&lt;p style=&quot;margin: 0px; margin-top: 4px; text-align: center; text-decoration: underline;&quot;&gt;UserAccounts&lt;/p&gt;&lt;hr&gt;&lt;p style=&quot;margin: 0px; margin-left: 8px;&quot;&gt;&lt;span style=&quot;background-color: initial;&quot;&gt;_id&lt;/span&gt;&lt;/p&gt;&lt;p style=&quot;margin: 0px; margin-left: 8px;&quot;&gt;&lt;span style=&quot;background-color: initial;&quot;&gt;code&lt;/span&gt;&lt;br&gt;&lt;/p&gt;&lt;p style=&quot;margin: 0px; margin-left: 8px;&quot;&gt;&lt;span style=&quot;background-color: initial;&quot;&gt;firstName&lt;/span&gt;&lt;/p&gt;&lt;p style=&quot;margin: 0px; margin-left: 8px;&quot;&gt;&lt;span style=&quot;background-color: initial;&quot;&gt;lastName&lt;/span&gt;&lt;/p&gt;&lt;p style=&quot;margin: 0px; margin-left: 8px;&quot;&gt;&lt;span style=&quot;background-color: initial;&quot;&gt;dni&lt;/span&gt;&lt;/p&gt;&lt;p style=&quot;margin: 0px; margin-left: 8px;&quot;&gt;address&lt;/p&gt;&lt;p style=&quot;margin: 0px; margin-left: 8px;&quot;&gt;phoneNumber&lt;/p&gt;&lt;p style=&quot;margin: 0px; margin-left: 8px;&quot;&gt;&lt;span style=&quot;background-color: initial;&quot;&gt;email&lt;/span&gt;&lt;/p&gt;&lt;p style=&quot;margin: 0px; margin-left: 8px;&quot;&gt;username&lt;/p&gt;&lt;p style=&quot;margin: 0px; margin-left: 8px;&quot;&gt;password&lt;/p&gt;&lt;p style=&quot;margin: 0px 0px 0px 8px;&quot;&gt;&lt;span style=&quot;background-color: initial;&quot;&gt;createdAt&lt;/span&gt;&lt;br&gt;&lt;/p&gt;&lt;p style=&quot;margin: 0px 0px 0px 8px;&quot;&gt;updatedAt&lt;/p&gt;&lt;p style=&quot;margin: 0px; margin-left: 8px;&quot;&gt;&lt;br&gt;&lt;/p&gt;" style="verticalAlign=top;align=left;overflow=fill;fontSize=12;fontFamily=Helvetica;html=1;strokeColor=#003366;shadow=1;fillColor=#D4E1F5;fontColor=#003366" vertex="1" parent="1">
          <mxGeometry x="560" y="50" width="170" height="280" as="geometry" />
        </mxCell>
        <mxCell id="KV0pygeaIstkxQwhvMH2-116" value="&lt;p style=&quot;margin: 0px; margin-top: 4px; text-align: center; text-decoration: underline;&quot;&gt;PaymentMethods&lt;/p&gt;&lt;hr&gt;&lt;p style=&quot;margin: 0px; margin-left: 8px;&quot;&gt;&lt;span style=&quot;background-color: initial;&quot;&gt;_id&lt;/span&gt;&lt;/p&gt;&lt;p style=&quot;margin: 0px; margin-left: 8px;&quot;&gt;&lt;span style=&quot;background-color: initial;&quot;&gt;code&lt;/span&gt;&lt;br&gt;&lt;/p&gt;&lt;p style=&quot;margin: 0px; margin-left: 8px;&quot;&gt;&lt;span style=&quot;background-color: initial;&quot;&gt;name&lt;/span&gt;&lt;/p&gt;&lt;p style=&quot;margin: 0px 0px 0px 8px;&quot;&gt;&lt;span style=&quot;background-color: initial;&quot;&gt;createdAt&lt;/span&gt;&lt;br&gt;&lt;/p&gt;&lt;p style=&quot;margin: 0px 0px 0px 8px;&quot;&gt;updatedAt&lt;/p&gt;&lt;p style=&quot;margin: 0px; margin-left: 8px;&quot;&gt;&lt;br&gt;&lt;/p&gt;" style="verticalAlign=top;align=left;overflow=fill;fontSize=12;fontFamily=Helvetica;html=1;strokeColor=#003366;shadow=1;fillColor=#D4E1F5;fontColor=#003366" vertex="1" parent="1">
          <mxGeometry x="40" y="310" width="160" height="150" as="geometry" />
        </mxCell>
        <mxCell id="KV0pygeaIstkxQwhvMH2-117" value="&lt;p style=&quot;margin: 0px; margin-top: 4px; text-align: center; text-decoration: underline;&quot;&gt;Payments&lt;/p&gt;&lt;hr&gt;&lt;p style=&quot;margin: 0px; margin-left: 8px;&quot;&gt;&lt;span style=&quot;background-color: initial;&quot;&gt;_id&lt;/span&gt;&lt;/p&gt;&lt;p style=&quot;margin: 0px; margin-left: 8px;&quot;&gt;&lt;span style=&quot;background-color: initial;&quot;&gt;code&lt;/span&gt;&lt;br&gt;&lt;/p&gt;&lt;p style=&quot;margin: 0px; margin-left: 8px;&quot;&gt;paymentMethodId&lt;/p&gt;&lt;p style=&quot;margin: 0px; margin-left: 8px;&quot;&gt;billId&lt;/p&gt;&lt;p style=&quot;margin: 0px 0px 0px 8px;&quot;&gt;&lt;span style=&quot;background-color: initial;&quot;&gt;createdAt&lt;/span&gt;&lt;br&gt;&lt;/p&gt;&lt;p style=&quot;margin: 0px 0px 0px 8px;&quot;&gt;updatedAt&lt;/p&gt;&lt;p style=&quot;margin: 0px; margin-left: 8px;&quot;&gt;&lt;br&gt;&lt;/p&gt;" style="verticalAlign=top;align=left;overflow=fill;fontSize=12;fontFamily=Helvetica;html=1;strokeColor=#003366;shadow=1;fillColor=#D4E1F5;fontColor=#003366" vertex="1" parent="1">
          <mxGeometry x="320" y="340" width="160" height="150" as="geometry" />
        </mxCell>
      </root>
    </mxGraphModel>
  </diagram>
</mxfile>
